<?xml version="1.0" encoding="UTF-8" standalone="no"?>
<!-- Created with Inkscape (http://www.inkscape.org/) -->

<svg
   width="118.043mm"
   height="20.656492mm"
   viewBox="0 0 118.043 20.656492"
   version="1.1"
   id="svg1"
   xml:space="preserve"
   sodipodi:docname="logo_inewave_vec.svg"
   inkscape:version="1.3 (0e150ed6c4, 2023-07-21)"
   inkscape:export-filename="logo_inewave_svg.svg"
   inkscape:export-xdpi="96"
   inkscape:export-ydpi="96"
   xmlns:inkscape="http://www.inkscape.org/namespaces/inkscape"
   xmlns:sodipodi="http://sodipodi.sourceforge.net/DTD/sodipodi-0.dtd"
   xmlns="http://www.w3.org/2000/svg"
   xmlns:svg="http://www.w3.org/2000/svg"><sodipodi:namedview
     id="namedview1"
     pagecolor="#ffffff"
     bordercolor="#000000"
     borderopacity="0.25"
     inkscape:showpageshadow="2"
     inkscape:pageopacity="0.0"
     inkscape:pagecheckerboard="true"
     inkscape:deskcolor="#d1d1d1"
     inkscape:document-units="mm"
     inkscape:zoom="2.0485264"
     inkscape:cx="154.25723"
     inkscape:cy="55.405681"
     inkscape:window-width="1920"
     inkscape:window-height="1009"
     inkscape:window-x="-8"
     inkscape:window-y="-8"
     inkscape:window-maximized="1"
     inkscape:current-layer="layer1"
     inkscape:export-bgcolor="#00000000" /><defs
     id="defs1" /><g
     inkscape:label="Camada 1"
     inkscape:groupmode="layer"
     id="layer1"
     transform="translate(-44.12902,-108.62412)"><path
       d="m 69.247113,129.28061 q -0.584665,0 -0.992713,-0.37199 -0.408024,-0.37199 -0.408024,-0.90499 v -2.33183 h -3.914099 q -0.584663,0 -0.992711,-0.37199 -0.408025,-0.37199 -0.408025,-0.90504 V 113.4875 H 58.59284 v 2.4171 q 0,0.53305 -0.408023,0.90503 -0.408073,0.37199 -0.992713,0.37199 h -5.312368 q -0.584664,0 -0.992713,-0.37199 -0.407999,-0.37198 -0.407999,-0.90503 v -6.00348 q 0,-0.533 0.408024,-0.90499 0.408024,-0.37201 0.992712,-0.37201 h 5.312368 q 0.584664,0 0.992712,0.37201 0.408025,0.37199 0.408025,0.90499 v 2.30938 h 9.25356 v -2.30938 q 0,-0.533 0.408023,-0.90499 0.408025,-0.37201 0.992713,-0.37201 h 5.304965 q 0.584665,0 0.992689,0.37201 0.408024,0.37199 0.408,0.90499 v 6.00348 q 0,0.53305 -0.408048,0.90503 -0.408025,0.37199 -0.992665,0.37199 h -5.304989 q -0.584665,0 -0.992713,-0.37199 -0.408024,-0.37198 -0.408024,-0.90503 v -2.4171 h -3.914099 v 10.90727 h 3.914099 v -2.41709 q 0,-0.51563 0.408024,-0.89631 0.408048,-0.38069 0.992713,-0.38069 h 5.304989 q 0.58464,0 0.992665,0.38069 0.408048,0.38068 0.408048,0.89631 v 6.02595 q 0,0.533 -0.408048,0.90499 -0.408025,0.37199 -0.992665,0.37199 z M 51.879736,109.90112 v 6.00348 z m 17.367377,12.07656 v 6.02595 z m 0,-12.07656 v 6.00348 z m 0,6.00348 h 5.304989 v -6.00348 h -5.304989 z m 0,12.09903 h 5.304989 v -6.02595 H 69.247113 Z M 51.879736,115.9046 h 5.312368 v -6.00348 h -5.312368 z"
       id="path1"
       style="fill:#ffffff;stroke-width:0.0305565" /><path
       style="font-size:20.0053px;font-family:'Baloo 2';-inkscape-font-specification:'Baloo 2, ';fill:#ffffff;stroke-width:1.6671"
       d="m 90.693124,109.89074 q 0,-0.42011 0.30008,-0.70019 0.300079,-0.30008 0.740196,-0.30008 0.460122,0 0.740196,0.30008 0.280074,0.28008 0.280074,0.70019 0,0.42011 -0.280074,0.72019 -0.280074,0.28008 -0.740196,0.28008 -0.440117,0 -0.740196,-0.28008 -0.30008,-0.30008 -0.30008,-0.72019 z m 0.240064,6.88182 h 1.600424 v 5.24139 q -0.100027,0.04 -0.30008,0.08 -0.200053,0.06 -0.440116,0.06 -0.420112,0 -0.64017,-0.16004 -0.220058,-0.18005 -0.220058,-0.56015 z m 1.600424,0.78021 h -1.600424 v -4.70125 q 0.100026,-0.04 0.300079,-0.08 0.220059,-0.06 0.460122,-0.06 0.420111,0 0.620164,0.18005 0.220059,0.16004 0.220059,0.56014 z m 11.122928,-1.60042 v 2.04054 h -1.60042 v -1.96052 q 0,-1.1203 -0.64017,-1.64044 -0.62016,-0.52014 -1.680446,-0.52014 -0.800212,0 -1.420376,0.20006 -0.620164,0.20005 -1.060281,0.46012 v 3.46092 h -1.600424 v -3.3809 q 0,-0.42011 0.160042,-0.68018 0.180048,-0.28007 0.60016,-0.54014 0.520137,-0.30008 1.380365,-0.56015 0.860228,-0.28008 1.940514,-0.28008 1.820486,0 2.860756,0.84023 1.06028,0.82021 1.06028,2.56068 z m -8.002117,0.94025 h 1.600424 v 5.12135 q -0.100026,0.04 -0.300079,0.08 -0.200053,0.06 -0.440117,0.06 -0.420111,0 -0.64017,-0.16004 -0.220058,-0.18005 -0.220058,-0.56015 z m 6.401697,0 h 1.60042 v 5.12135 q -0.10002,0.04 -0.32008,0.08 -0.20005,0.06 -0.42011,0.06 -0.44012,0 -0.66018,-0.16004 -0.20005,-0.18005 -0.20005,-0.56015 z m 5.18136,1.56041 -0.08,-1.26034 6.0416,-0.82021 q -0.08,-1.10029 -0.76021,-1.80048 -0.68018,-0.72019 -1.88049,-0.72019 -1.24033,0 -2.06055,0.90024 -0.80021,0.88023 -0.80021,2.54067 v 0.44012 q 0.14004,1.60042 1.04027,2.44064 0.92025,0.82022 2.50067,0.82022 0.84022,0 1.5204,-0.28007 0.68018,-0.28008 1.08029,-0.60016 0.22005,0.14004 0.34009,0.34009 0.14003,0.18005 0.14003,0.42011 0,0.3801 -0.44011,0.72019 -0.42012,0.32009 -1.14031,0.52014 -0.70018,0.20005 -1.58041,0.20005 -1.54041,0 -2.68071,-0.56015 -1.1203,-0.56015 -1.74047,-1.66044 -0.60016,-1.12029 -0.60016,-2.72072 0,-1.1403 0.32009,-2.02053 0.34009,-0.90024 0.92024,-1.52041 0.60016,-0.62016 1.42038,-0.94024 0.82022,-0.3401 1.78047,-0.3401 1.22032,0 2.14057,0.52014 0.94025,0.52014 1.46039,1.46039 0.54014,0.92024 0.54014,2.12056 0,0.44012 -0.20005,0.64017 -0.20006,0.18005 -0.56015,0.22006 z m 15.46409,-3.28087 q -0.3601,1.26033 -0.78021,2.52067 -0.40011,1.26033 -0.78021,2.36062 -0.3801,1.10029 -0.70018,1.90051 -0.16004,0.10002 -0.3601,0.16004 -0.20005,0.06 -0.54014,0.06 -0.32009,0 -0.60016,-0.12003 -0.26007,-0.10002 -0.36009,-0.34009 -0.20006,-0.4001 -0.46013,-1.1603 -0.24006,-0.76021 -0.52013,-1.74047 -0.26007,-0.98026 -0.54015,-2.02053 -0.28007,-1.06028 -0.52014,-2.04054 -0.22005,-0.98026 -0.3801,-1.74046 0.14004,-0.14004 0.34009,-0.26007 0.22006,-0.12003 0.52014,-0.12003 0.3801,0 0.56015,0.22005 0.20005,0.20006 0.28007,0.66018 0.18005,0.84022 0.40011,1.9005 0.24006,1.06028 0.48013,2.10056 0.26007,1.04028 0.46012,1.8805 0.22006,0.82022 0.32008,1.22032 h 0.08 q 0.16004,-0.48013 0.50013,-1.56041 0.34009,-1.10029 0.80021,-2.50066 0.48013,-1.40038 0.96025,-2.84076 0.16005,-0.10002 0.38011,-0.14003 0.22005,-0.06 0.48012,-0.06 0.3601,0 0.60016,0.14004 0.24007,0.12003 0.32009,0.3801 0.48012,1.38036 0.90023,2.72072 0.42012,1.32035 0.7402,2.36062 0.32009,1.02027 0.46012,1.52041 h 0.10003 q 0.46012,-1.78048 1.00026,-3.82102 0.54015,-2.04054 0.88024,-4.00106 0.28007,-0.18004 0.68018,-0.18004 0.34009,0 0.54014,0.16004 0.20005,0.16004 0.20005,0.50013 0,0.22006 -0.14003,0.84022 -0.12003,0.62017 -0.34009,1.46039 -0.22006,0.84022 -0.50014,1.80048 -0.26006,0.94025 -0.54014,1.84049 -0.28007,0.88023 -0.54014,1.60042 -0.24007,0.72019 -0.42011,1.1203 -0.10003,0.08 -0.34009,0.14003 -0.22006,0.08 -0.52014,0.08 -0.82022,0 -0.96026,-0.3801 -0.28007,-0.72019 -0.64017,-1.78047 -0.36009,-1.08028 -0.74019,-2.32061 -0.3801,-1.26034 -0.7602,-2.52067 z m 11.86314,5.84155 q 0.84022,0 1.38036,-0.16005 0.56015,-0.18004 0.80022,-0.34009 v -2.90076 l -2.48066,0.26006 q -1.04028,0.08 -1.54041,0.46013 -0.50013,0.3801 -0.50013,1.10029 0,0.74019 0.58015,1.16031 0.60016,0.42011 1.76047,0.42011 z m -0.02,-8.46225 q 1.74046,0 2.76073,0.78021 1.02027,0.78021 1.02027,2.46065 v 4.74126 q 0,0.44012 -0.18004,0.68018 -0.16005,0.22006 -0.50014,0.42011 -0.48012,0.26007 -1.28034,0.48013 -0.80021,0.22006 -1.80047,0.22006 -1.8805,0 -2.92078,-0.7402 -1.02027,-0.7402 -1.02027,-2.14057 0,-1.30034 0.86023,-1.98052 0.88023,-0.70019 2.42064,-0.84022 l 2.84076,-0.28008 v -0.56015 q 0,-1.00026 -0.60016,-1.46038 -0.60016,-0.46013 -1.62043,-0.46013 -0.82022,0 -1.58042,0.24007 -0.7402,0.24006 -1.32035,0.54014 -0.16004,-0.14004 -0.30008,-0.32008 -0.12003,-0.20006 -0.12003,-0.40011 0,-0.52014 0.58015,-0.80021 0.54014,-0.28008 1.24033,-0.42011 0.72019,-0.16005 1.5204,-0.16005 z m 13.38358,0.08 q 0.34009,0 0.54014,0.18004 0.22006,0.18005 0.22006,0.52014 0,0.26007 -0.22006,0.98026 -0.22006,0.72019 -0.58015,1.72046 -0.3601,1.00026 -0.80021,2.10055 -0.42012,1.08029 -0.88024,2.10056 -0.44011,1.00027 -0.82022,1.74046 -0.10002,0.08 -0.36009,0.14004 -0.24006,0.06 -0.52014,0.06 -0.34009,0 -0.60016,-0.12003 -0.26007,-0.10002 -0.36009,-0.30008 -0.22006,-0.4001 -0.58016,-1.1603 -0.34009,-0.78021 -0.74019,-1.76047 -0.40011,-0.98026 -0.82022,-2.02054 -0.40011,-1.06028 -0.7402,-2.02053 -0.34009,-0.98026 -0.56014,-1.72046 0.14003,-0.20005 0.3801,-0.32008 0.24006,-0.12003 0.48012,-0.12003 0.3601,0 0.56015,0.18004 0.20005,0.18005 0.34009,0.60016 l 1.24033,3.58095 q 0.16004,0.46012 0.42011,1.1403 0.26007,0.68018 0.52014,1.36036 0.26007,0.68018 0.42011,1.14031 h 0.08 q 0.80021,-2.02054 1.5004,-3.98106 0.70019,-1.98052 1.20032,-3.86102 0.26007,-0.16004 0.68018,-0.16004 z m 3.40093,5.82154 -0.08,-1.26034 6.0416,-0.82021 q -0.08,-1.10029 -0.7602,-1.80048 -0.68018,-0.72019 -1.8805,-0.72019 -1.24033,0 -2.06055,0.90024 -0.80021,0.88023 -0.80021,2.54067 v 0.44012 q 0.14004,1.60042 1.04028,2.44064 0.92024,0.82022 2.50066,0.82022 0.84022,0 1.5204,-0.28007 0.68018,-0.28008 1.08029,-0.60016 0.22006,0.14004 0.34009,0.34009 0.14003,0.18005 0.14003,0.42011 0,0.3801 -0.44011,0.72019 -0.42011,0.32009 -1.1403,0.52014 -0.70019,0.20005 -1.58042,0.20005 -1.54041,0 -2.68071,-0.56015 -1.1203,-0.56015 -1.74046,-1.66044 -0.60016,-1.12029 -0.60016,-2.72072 0,-1.1403 0.32008,-2.02053 0.34009,-0.90024 0.92025,-1.52041 0.60015,-0.62016 1.42037,-0.94024 0.82022,-0.3401 1.78047,-0.3401 1.22033,0 2.14057,0.52014 0.94025,0.52014 1.46039,1.46039 0.54014,0.92024 0.54014,2.12056 0,0.44012 -0.20005,0.64017 -0.20006,0.18005 -0.56015,0.22006 z"
       id="text1"
       transform="scale(0.97298952,1.0277603)"
       aria-label="inewave" /></g></svg>
